<svg width="239" height="239" viewBox="0 0 239 239" fill="none" xmlns="http://www.w3.org/2000/svg">
<rect width="239" height="239" rx="51.2143" fill="#FDF5EA"/>
<mask id="mask0_136_1887" style="mask-type:alpha" maskUnits="userSpaceOnUse" x="42" y="42" width="206" height="206">
<rect x="42.6787" y="42.6786" width="204.857" height="204.857" fill="#D9D9D9"/>
</mask>
<g mask="url(#mask0_136_1887)">
<path d="M113.098 177.116V126.062C106.27 126.062 99.7077 124.755 93.4126 122.141C87.1175 119.527 81.5693 115.819 76.7679 111.018C71.9666 106.216 68.2856 100.668 65.7249 94.373C63.1641 88.0779 61.8838 81.5161 61.8838 74.6875V61.8839H74.6874C81.4092 61.8839 87.9177 63.1909 94.2128 65.805C100.508 68.4191 106.056 72.1268 110.857 76.9281C114.165 80.2357 116.912 83.8634 119.1 87.8111C121.287 91.7589 122.967 95.9734 124.141 100.455C124.675 99.7078 125.261 98.9876 125.902 98.2941C126.542 97.6005 127.235 96.8803 127.982 96.1335C132.784 91.3321 138.332 87.6244 144.627 85.0104C150.922 82.3963 157.484 81.0893 164.312 81.0893H177.116V93.8928C177.116 100.721 175.809 107.283 173.195 113.578C170.581 119.873 166.873 125.422 162.072 130.223C157.27 135.024 151.749 138.705 145.507 141.266C139.265 143.827 132.73 145.107 125.902 145.107V177.116H113.098Z" fill="#302008"/>
</g>
</svg>
